<mxfile host="app.diagrams.net" modified="2024-03-27T11:07:05.954Z" agent="Mozilla/5.0 (Windows NT 10.0; Win64; x64) AppleWebKit/537.36 (KHTML, like Gecko) Chrome/120.0.0.0 YaBrowser/24.1.0.0 Safari/537.36" etag="9ppY60f3TZ_dMqWQ3sZ4" version="24.2.0" type="device">
  <diagram name="Страница — 1" id="5QLbF_EbArCZrA3MdyYp">
    <mxGraphModel dx="794" dy="425" grid="1" gridSize="10" guides="1" tooltips="1" connect="1" arrows="1" fold="1" page="1" pageScale="1" pageWidth="827" pageHeight="1169" math="0" shadow="0">
      <root>
        <mxCell id="0" />
        <mxCell id="1" parent="0" />
        <mxCell id="PqDy4sXVkUOTv9079twN-2" value="MyTcpServer" style="swimlane;fontStyle=1;align=center;verticalAlign=top;childLayout=stackLayout;horizontal=1;startSize=26;horizontalStack=0;resizeParent=1;resizeParentMax=0;resizeLast=0;collapsible=1;marginBottom=0;whiteSpace=wrap;html=1;" vertex="1" parent="1">
          <mxGeometry x="154" y="150" width="200" height="160" as="geometry" />
        </mxCell>
        <mxCell id="PqDy4sXVkUOTv9079twN-3" value="- mTcpServer: QTcpServer *&lt;div&gt;- clients: QList&amp;lt;MyClient&amp;gt;&lt;/div&gt;" style="text;strokeColor=none;fillColor=none;align=left;verticalAlign=top;spacingLeft=4;spacingRight=4;overflow=hidden;rotatable=0;points=[[0,0.5],[1,0.5]];portConstraint=eastwest;whiteSpace=wrap;html=1;" vertex="1" parent="PqDy4sXVkUOTv9079twN-2">
          <mxGeometry y="26" width="200" height="44" as="geometry" />
        </mxCell>
        <mxCell id="PqDy4sXVkUOTv9079twN-4" value="" style="line;strokeWidth=1;fillColor=none;align=left;verticalAlign=middle;spacingTop=-1;spacingLeft=3;spacingRight=3;rotatable=0;labelPosition=right;points=[];portConstraint=eastwest;strokeColor=inherit;" vertex="1" parent="PqDy4sXVkUOTv9079twN-2">
          <mxGeometry y="70" width="200" height="8" as="geometry" />
        </mxCell>
        <mxCell id="PqDy4sXVkUOTv9079twN-5" value="+ MyTcpServer(QObject*)&lt;div&gt;+ ~MyTcpServer()&lt;/div&gt;&lt;div&gt;+ slotNewConnection(): void&lt;/div&gt;&lt;div&gt;+ slotServerRead(): void&lt;/div&gt;&lt;div&gt;+ slotOnClientDisconnected():viod&lt;/div&gt;" style="text;strokeColor=none;fillColor=none;align=left;verticalAlign=top;spacingLeft=4;spacingRight=4;overflow=hidden;rotatable=0;points=[[0,0.5],[1,0.5]];portConstraint=eastwest;whiteSpace=wrap;html=1;" vertex="1" parent="PqDy4sXVkUOTv9079twN-2">
          <mxGeometry y="78" width="200" height="82" as="geometry" />
        </mxCell>
        <mxCell id="PqDy4sXVkUOTv9079twN-10" value="MyClient" style="swimlane;fontStyle=1;align=center;verticalAlign=top;childLayout=stackLayout;horizontal=1;startSize=26;horizontalStack=0;resizeParent=1;resizeParentMax=0;resizeLast=0;collapsible=1;marginBottom=0;whiteSpace=wrap;html=1;" vertex="1" parent="1">
          <mxGeometry x="460" y="138" width="170" height="170" as="geometry" />
        </mxCell>
        <mxCell id="PqDy4sXVkUOTv9079twN-11" value="- mTcpSocket: QTcpSocket *&lt;div&gt;- login: QString&lt;/div&gt;&lt;div&gt;- id_connection: int&lt;/div&gt;" style="text;strokeColor=none;fillColor=none;align=left;verticalAlign=top;spacingLeft=4;spacingRight=4;overflow=hidden;rotatable=0;points=[[0,0.5],[1,0.5]];portConstraint=eastwest;whiteSpace=wrap;html=1;" vertex="1" parent="PqDy4sXVkUOTv9079twN-10">
          <mxGeometry y="26" width="170" height="54" as="geometry" />
        </mxCell>
        <mxCell id="PqDy4sXVkUOTv9079twN-12" value="" style="line;strokeWidth=1;fillColor=none;align=left;verticalAlign=middle;spacingTop=-1;spacingLeft=3;spacingRight=3;rotatable=0;labelPosition=right;points=[];portConstraint=eastwest;strokeColor=inherit;" vertex="1" parent="PqDy4sXVkUOTv9079twN-10">
          <mxGeometry y="80" width="170" height="8" as="geometry" />
        </mxCell>
        <mxCell id="PqDy4sXVkUOTv9079twN-13" value="+ MyClient()&lt;div&gt;+ ~MyClient()&lt;/div&gt;&lt;div&gt;+ is_auth(): bool&lt;/div&gt;&lt;div&gt;&lt;br&gt;&lt;/div&gt;&lt;div&gt;...&lt;/div&gt;" style="text;strokeColor=none;fillColor=none;align=left;verticalAlign=top;spacingLeft=4;spacingRight=4;overflow=hidden;rotatable=0;points=[[0,0.5],[1,0.5]];portConstraint=eastwest;whiteSpace=wrap;html=1;" vertex="1" parent="PqDy4sXVkUOTv9079twN-10">
          <mxGeometry y="88" width="170" height="82" as="geometry" />
        </mxCell>
        <mxCell id="PqDy4sXVkUOTv9079twN-34" style="edgeStyle=orthogonalEdgeStyle;rounded=0;orthogonalLoop=1;jettySize=auto;html=1;entryX=0;entryY=0.5;entryDx=0;entryDy=0;endArrow=none;endFill=0;" edge="1" parent="1" source="PqDy4sXVkUOTv9079twN-14" target="PqDy4sXVkUOTv9079twN-23">
          <mxGeometry relative="1" as="geometry">
            <Array as="points">
              <mxPoint x="430" y="410" />
              <mxPoint x="430" y="394" />
            </Array>
          </mxGeometry>
        </mxCell>
        <mxCell id="PqDy4sXVkUOTv9079twN-14" value="FunctionsForServer" style="swimlane;fontStyle=1;align=center;verticalAlign=top;childLayout=stackLayout;horizontal=1;startSize=26;horizontalStack=0;resizeParent=1;resizeParentMax=0;resizeLast=0;collapsible=1;marginBottom=0;whiteSpace=wrap;html=1;" vertex="1" parent="1">
          <mxGeometry x="100" y="380" width="280" height="130" as="geometry" />
        </mxCell>
        <mxCell id="PqDy4sXVkUOTv9079twN-16" value="" style="line;strokeWidth=1;fillColor=none;align=left;verticalAlign=middle;spacingTop=-1;spacingLeft=3;spacingRight=3;rotatable=0;labelPosition=right;points=[];portConstraint=eastwest;strokeColor=inherit;" vertex="1" parent="PqDy4sXVkUOTv9079twN-14">
          <mxGeometry y="26" width="280" height="8" as="geometry" />
        </mxCell>
        <mxCell id="PqDy4sXVkUOTv9079twN-17" value="+ parsing(int, QString): QByteArray&lt;div&gt;+ auth(int, QStiring, QString): QByteArray&lt;/div&gt;&lt;div&gt;+ reg(QString, QString, QString): QByteArray&lt;/div&gt;&lt;div&gt;+ lookmystat(int): QByteArray&lt;/div&gt;&lt;div&gt;+ lookallstat(): QByteArray&lt;/div&gt;&lt;div&gt;...&lt;/div&gt;" style="text;strokeColor=none;fillColor=none;align=left;verticalAlign=top;spacingLeft=4;spacingRight=4;overflow=hidden;rotatable=0;points=[[0,0.5],[1,0.5]];portConstraint=eastwest;whiteSpace=wrap;html=1;" vertex="1" parent="PqDy4sXVkUOTv9079twN-14">
          <mxGeometry y="34" width="280" height="96" as="geometry" />
        </mxCell>
        <mxCell id="PqDy4sXVkUOTv9079twN-22" value="MyDB" style="swimlane;fontStyle=1;align=center;verticalAlign=top;childLayout=stackLayout;horizontal=1;startSize=26;horizontalStack=0;resizeParent=1;resizeParentMax=0;resizeLast=0;collapsible=1;marginBottom=0;whiteSpace=wrap;html=1;" vertex="1" parent="1">
          <mxGeometry x="480" y="355" width="160" height="86" as="geometry" />
        </mxCell>
        <mxCell id="PqDy4sXVkUOTv9079twN-23" value="+ field: type" style="text;strokeColor=none;fillColor=none;align=left;verticalAlign=top;spacingLeft=4;spacingRight=4;overflow=hidden;rotatable=0;points=[[0,0.5],[1,0.5]];portConstraint=eastwest;whiteSpace=wrap;html=1;" vertex="1" parent="PqDy4sXVkUOTv9079twN-22">
          <mxGeometry y="26" width="160" height="26" as="geometry" />
        </mxCell>
        <mxCell id="PqDy4sXVkUOTv9079twN-24" value="" style="line;strokeWidth=1;fillColor=none;align=left;verticalAlign=middle;spacingTop=-1;spacingLeft=3;spacingRight=3;rotatable=0;labelPosition=right;points=[];portConstraint=eastwest;strokeColor=inherit;" vertex="1" parent="PqDy4sXVkUOTv9079twN-22">
          <mxGeometry y="52" width="160" height="8" as="geometry" />
        </mxCell>
        <mxCell id="PqDy4sXVkUOTv9079twN-25" value="+ method(type): type" style="text;strokeColor=none;fillColor=none;align=left;verticalAlign=top;spacingLeft=4;spacingRight=4;overflow=hidden;rotatable=0;points=[[0,0.5],[1,0.5]];portConstraint=eastwest;whiteSpace=wrap;html=1;" vertex="1" parent="PqDy4sXVkUOTv9079twN-22">
          <mxGeometry y="60" width="160" height="26" as="geometry" />
        </mxCell>
        <mxCell id="PqDy4sXVkUOTv9079twN-26" value="MyDB_destroyer" style="swimlane;fontStyle=1;align=center;verticalAlign=top;childLayout=stackLayout;horizontal=1;startSize=26;horizontalStack=0;resizeParent=1;resizeParentMax=0;resizeLast=0;collapsible=1;marginBottom=0;whiteSpace=wrap;html=1;" vertex="1" parent="1">
          <mxGeometry x="480" y="480" width="160" height="86" as="geometry" />
        </mxCell>
        <mxCell id="PqDy4sXVkUOTv9079twN-27" value="+ field: type" style="text;strokeColor=none;fillColor=none;align=left;verticalAlign=top;spacingLeft=4;spacingRight=4;overflow=hidden;rotatable=0;points=[[0,0.5],[1,0.5]];portConstraint=eastwest;whiteSpace=wrap;html=1;" vertex="1" parent="PqDy4sXVkUOTv9079twN-26">
          <mxGeometry y="26" width="160" height="26" as="geometry" />
        </mxCell>
        <mxCell id="PqDy4sXVkUOTv9079twN-28" value="" style="line;strokeWidth=1;fillColor=none;align=left;verticalAlign=middle;spacingTop=-1;spacingLeft=3;spacingRight=3;rotatable=0;labelPosition=right;points=[];portConstraint=eastwest;strokeColor=inherit;" vertex="1" parent="PqDy4sXVkUOTv9079twN-26">
          <mxGeometry y="52" width="160" height="8" as="geometry" />
        </mxCell>
        <mxCell id="PqDy4sXVkUOTv9079twN-29" value="+ method(type): type" style="text;strokeColor=none;fillColor=none;align=left;verticalAlign=top;spacingLeft=4;spacingRight=4;overflow=hidden;rotatable=0;points=[[0,0.5],[1,0.5]];portConstraint=eastwest;whiteSpace=wrap;html=1;" vertex="1" parent="PqDy4sXVkUOTv9079twN-26">
          <mxGeometry y="60" width="160" height="26" as="geometry" />
        </mxCell>
        <mxCell id="PqDy4sXVkUOTv9079twN-30" value="" style="endArrow=diamondThin;endFill=1;endSize=24;html=1;rounded=0;exitX=0.004;exitY=0.145;exitDx=0;exitDy=0;exitPerimeter=0;entryX=1;entryY=0.083;entryDx=0;entryDy=0;entryPerimeter=0;" edge="1" parent="1" source="PqDy4sXVkUOTv9079twN-10" target="PqDy4sXVkUOTv9079twN-2">
          <mxGeometry width="160" relative="1" as="geometry">
            <mxPoint x="330" y="340" as="sourcePoint" />
            <mxPoint x="360" y="163" as="targetPoint" />
          </mxGeometry>
        </mxCell>
        <mxCell id="PqDy4sXVkUOTv9079twN-31" value="1" style="edgeLabel;html=1;align=center;verticalAlign=middle;resizable=0;points=[];" vertex="1" connectable="0" parent="PqDy4sXVkUOTv9079twN-30">
          <mxGeometry x="0.7489" y="1" relative="1" as="geometry">
            <mxPoint x="-10" y="12" as="offset" />
          </mxGeometry>
        </mxCell>
        <mxCell id="PqDy4sXVkUOTv9079twN-32" value="1*" style="edgeLabel;html=1;align=center;verticalAlign=middle;resizable=0;points=[];" vertex="1" connectable="0" parent="PqDy4sXVkUOTv9079twN-30">
          <mxGeometry x="-0.7692" y="-1" relative="1" as="geometry">
            <mxPoint y="8" as="offset" />
          </mxGeometry>
        </mxCell>
        <mxCell id="PqDy4sXVkUOTv9079twN-33" style="edgeStyle=orthogonalEdgeStyle;rounded=0;orthogonalLoop=1;jettySize=auto;html=1;entryX=0.548;entryY=-0.01;entryDx=0;entryDy=0;entryPerimeter=0;endArrow=none;endFill=0;" edge="1" parent="1" source="PqDy4sXVkUOTv9079twN-2" target="PqDy4sXVkUOTv9079twN-14">
          <mxGeometry relative="1" as="geometry" />
        </mxCell>
        <mxCell id="PqDy4sXVkUOTv9079twN-36" style="edgeStyle=orthogonalEdgeStyle;rounded=0;orthogonalLoop=1;jettySize=auto;html=1;entryX=-0.012;entryY=0.077;entryDx=0;entryDy=0;entryPerimeter=0;endArrow=none;endFill=0;" edge="1" parent="1" source="PqDy4sXVkUOTv9079twN-17" target="PqDy4sXVkUOTv9079twN-27">
          <mxGeometry relative="1" as="geometry" />
        </mxCell>
      </root>
    </mxGraphModel>
  </diagram>
</mxfile>
